<?xml version="1.0" standalone="no"?><!DOCTYPE svg PUBLIC "-//W3C//DTD SVG 1.1//EN" "http://www.w3.org/Graphics/SVG/1.1/DTD/svg11.dtd"><svg t="1751701758772" class="icon" viewBox="0 0 3487 1024" version="1.1" xmlns="http://www.w3.org/2000/svg" p-id="7757" xmlns:xlink="http://www.w3.org/1999/xlink" width="136.2109375" height="40"><path d="M2110.494298 716.027864c-40.081977-0.858024-52.952336 21.573174-52.952336 21.573174l-1.838623-19.489401h-36.037006v166.946949h41.552875v-101.369403a36.037007 36.037007 0 0 1 36.772456-39.223953c24.51497 0 31.992036 22.063473 31.992036 39.223953v101.369403h38.611078v-98.059882c0-51.236288-27.701917-70.848265-57.732755-70.848265M1751.227406 843.99601a109.581918 109.581918 0 0 1-91.685989 46.088145 108.11102 108.11102 0 0 1-77.589882-31.746887 106.272397 106.272397 0 0 1-32.237186-78.080181 104.433774 104.433774 0 0 1 36.772456-81.389702 106.394972 106.394972 0 0 1 73.544911-28.927665 122.574852 122.574852 0 0 1 56.384432 14.708982 118.775032 118.775032 0 0 1 35.546707 31.992036l-36.772455 25.863294a53.932935 53.932935 0 0 0-10.296288-16.67018 58.713354 58.713354 0 0 0-45.842995-20.837724 57.85533 57.85533 0 0 0-45.47527 21.328024 79.06078 79.06078 0 0 0-18.141078 53.687785 82.247726 82.247726 0 0 0 18.141078 55.158684 57.732755 57.732755 0 0 0 45.47527 20.347425 58.713354 58.713354 0 0 0 45.842995-20.9603 68.887067 68.887067 0 0 0 10.296288-16.792754s26.598743 19.734551 36.037006 26.231018M1766.304113 643.708701h42.410899v93.892337a59.939103 59.939103 0 0 1 48.171917-21.573174c30.030839 0 57.977905 20.102276 57.977905 70.72569v98.059882h-38.856228v-101.124253c0-17.283054-6.864192-38.978803-31.256587-38.978803s-35.791857 17.528204-35.791857 38.978803v101.369403h-42.533474zM2324.877715 718.479361v19.489402a75.138384 75.138384 0 0 0-54.668384-23.779522 78.325331 78.325331 0 0 0-58.713354 24.514971 87.028145 87.028145 0 0 0-23.534372 62.268025 89.357067 89.357067 0 0 0 23.534372 63.003474 77.835031 77.835031 0 0 0 59.816528 24.51497 76.977007 76.977007 0 0 0 53.320061-22.431197v17.773353H2365.695141V718.479361z m-11.399461 121.349104a49.029941 49.029941 0 0 1-71.093414 0 55.281258 55.281258 0 0 1-13.11551-38.365929 52.829761 52.829761 0 0 1 13.360659-36.772455 45.597845 45.597845 0 0 1 34.933833-15.199282 46.455869 46.455869 0 0 1 35.791857 15.199282 59.081079 59.081079 0 0 1 0 75.873833z" fill="#221E1F" p-id="7758"></path><path d="M1965.365673 700.706008a21.695749 21.695749 0 0 1-22.431198-22.308623 22.063473 22.063473 0 0 1 22.921498-22.431198 21.450599 21.450599 0 0 1 22.921497 22.431198 21.818324 21.818324 0 0 1-22.921497 22.308623zM1946.366571 717.498762h38.978803v167.437249h-38.978803zM2836.995448 701.196307a21.573174 21.573174 0 0 1-22.553772-21.818324 22.553773 22.553773 0 0 1 23.044072-23.166647 22.553773 22.553773 0 1 1 0 44.984971z" fill="#ED1A34" p-id="7759"></path><path d="M3432.096357 716.885888a70.23539 70.23539 0 0 0-56.629582 26.108444 50.378264 50.378264 0 0 0-43.514073-26.108444 58.468205 58.468205 0 0 0-50.378264 21.573174l-1.716048-19.857126h-37.753055v166.45665h42.288324V784.792356c0-21.695749 11.276886-38.978803 33.217785-38.978803S3346.29396 767.386727 3346.29396 784.792356v100.26623h38.365929v-98.059882c0-28.314791 13.115509-41.552875 32.60491-41.552875 22.431198 0 29.29539 21.573174 29.29539 38.978803v100.266229h38.365929v-98.059882c0-50.623414-25.25042-69.867666-53.074911-70.72569" fill="#221E1F" p-id="7760"></path><path d="M2817.873771 718.601936h38.978803v166.579224h-38.978803z" fill="#ED1A34" p-id="7761"></path><path d="M3045.372697 852.698825a78.202756 78.202756 0 0 1-28.069641 24.51497 88.866768 88.866768 0 0 1-106.517546-13.728383 82.983175 82.983175 0 0 1-25.740719-61.287427 83.963774 83.963774 0 0 1 29.172814-64.964671 85.802397 85.802397 0 0 1 58.223055-22.431198 88.499043 88.499043 0 0 1 44.372097 12.257485 82.370301 82.370301 0 0 1 28.069641 24.51497l-30.766288 22.431198a40.572276 40.572276 0 0 0-7.722216-12.257485 41.307725 41.307725 0 0 0-33.462934-15.567006 40.694851 40.694851 0 0 0-32.359761 15.567006 58.958504 58.958504 0 0 0-13.360659 40.327127 60.306827 60.306827 0 0 0 13.360659 40.694851 40.940001 40.940001 0 0 0 32.359761 15.567006 40.204552 40.204552 0 0 0 32.972635-15.444432 49.029941 49.029941 0 0 0 8.212515-12.257485zM2512.784964 887.510083c39.836827 0.612874 52.952336-21.695749 52.952336-21.695749l1.961198 19.244252h36.159581V718.601936H2561.814905v101.124253a35.301557 35.301557 0 0 1-35.791857 39.223953 35.791857 35.791857 0 0 1-34.443534-39.223953V718.601936h-42.288324v98.059882c0 51.236288 33.217785 70.72569 63.493774 71.215989M2728.516704 716.027864c-39.591677 0-52.952336 22.063473-52.952336 22.063474l-1.716048-19.489402h-36.772456v166.45665h41.798025V784.792356c0-22.186048 12.257485-39.101378 35.791857-39.101377s31.992036 21.450599 31.992036 39.101377v100.633954h39.223953v-98.059882c0-50.991139-27.701917-70.48054-57.732756-71.338564M3210.481024 757.703314a84.208924 84.208924 0 0 0-32.237187-31.256587 85.802397 85.802397 0 0 0-43.881797-12.257486 82.983175 82.983175 0 0 0-56.997306 22.676348 82.125151 82.125151 0 0 0-28.80509 64.106648 83.473474 83.473474 0 0 0 25.372994 62.022875 81.512277 81.512277 0 0 0 61.287426 24.514971 85.802397 85.802397 0 0 0 44.249522-11.399462 82.002576 82.002576 0 0 0 31.501737-31.869461 90.215091 90.215091 0 0 0 12.257485-44.004372 88.621618 88.621618 0 0 0-12.747784-42.533474z m-39.714253 86.415271a41.18515 41.18515 0 0 1-32.85006 16.057306 42.656049 42.656049 0 0 1-33.462935-15.567007 68.887067 68.887067 0 0 1-12.257485-42.901198 61.287426 61.287426 0 0 1 13.483234-41.552875 39.223953 39.223953 0 0 1 32.237186-16.302455 42.410899 42.410899 0 0 1 33.462935 16.42503 68.151618 68.151618 0 0 1 13.360659 42.043174 63.861498 63.861498 0 0 1-13.973534 41.798025zM2689.415326 338.374744h-50.01054V288.364204h50.01054z m0 90.827966l-50.01054 13.973533v-63.616348h50.01054z m85.802397-23.779522l-27.211617 7.967366V184.17558c0-25.863294-15.812156-41.67545-35.178983-41.67545H2567.943647V184.17558h121.961979v63.126049h-50.01054V205.013305h-54.790959v253.975094l-24.514971 7.477066v45.107546l128.948745-36.772456v83.350899h23.166647c18.018503 0 29.908264-11.399461 35.178983-33.340359v-65.332397l27.211617-7.967365z" fill="#221E1F" p-id="7762"></path><path d="M2913.972456 369.508757h71.583713v-41.185151h-79.918803v-62.268025h79.918803v-40.817426h-52.216887l46.946169-59.203653-44.739821-31.992037-57.977905 91.19569h-42.043175l34.566109-24.51497a549.625638 549.625638 0 0 0-54.790959-65.822696L2782.449639 154.63504l42.165749 70.97084h-52.216887v40.817426h68.396768v62.268025h-68.396768v41.307725h60.551977l-71.093414 183.862279h30.275988A45.352695 45.352695 0 0 0 2831.47958 527.385166l43.881797-109.214193 60.061678 135.567787h60.184252zM1910.574714 373.063427a26.108444 26.108444 0 0 1-25.863294 26.231019h-82.002576V233.205521h107.86587zM1936.683158 191.407496h-134.832338v-57.365031h-70.112815v57.365031h-87.763595V233.205521h87.763595v166.701799h-108.35617v-208.377249h-70.112815v248.581801h178.836709v118.407307h11.031737c39.836827-1.716048 57.85533-19.244252 59.203654-49.029941v-69.377366h117.917008a60.184253 60.184253 0 0 0 59.693953-57.855331V233.205521a44.617246 44.617246 0 0 0-43.268923-41.798025M2439.240052 146.667675h-290.379825v40.327126h269.664675v297.366592a25.372994 25.372994 0 0 1-25.863293 25.863294h-265.251981V146.667675h-64.106648V551.900137h361.47324a58.835929 58.835929 0 0 0 58.713354-59.203654V190.917197a44.494671 44.494671 0 0 0-44.249522-44.249522" fill="#221E1F" p-id="7763"></path><path d="M2397.074303 429.325285H2365.695141l20.592575-25.863294a316.243119 316.243119 0 0 0-49.029941-37.753055l-24.51497 24.514971 35.669282 39.101378h-47.804193v-68.274193h94.750361v-41.185151h-94.750361v-50.868563h94.750361v-40.817426h-245.149704v40.817426h85.802396v50.868563h-85.802396v41.185151h85.802396V429.325285h-87.273295v40.694851h248.214076V429.325285zM3173.340843 512.185885a26.966468 26.966468 0 0 1-26.721318-26.843893V273.532647h-92.544013v41.185151h30.766288V501.644447a51.849163 51.849163 0 0 0 49.029941 51.236289h351.299527v-40.694851z" fill="#221E1F" p-id="7764"></path><path d="M3420.696895 316.066121h-64.842097v-27.579342h64.842097z m0 66.68072h-64.842097V355.780373h64.842097z m-120.613654-66.68072H3235.976593v-27.579342h63.984073z m0 66.68072H3235.976593V355.780373h63.984073z m145.618924-134.832338h-64.842097l85.802397-51.358863V149.854621h-289.766951v40.327127h211.809345l-69.254792 41.307725a403.516414 403.516414 0 0 0-56.139282-30.766288l-21.573174 27.701917 21.573174 19.244251h-83.3509v245.149705h16.67018a36.772456 36.772456 0 0 0 38.978803-36.772456v-33.340359h64.106648v70.603115h18.018503a34.811258 34.811258 0 0 0 37.63048-36.772456v-33.830659H3419.838871v16.670179c0 7.477066-9.683413 12.257485-16.67018 12.257486h-24.51497l10.909162 41.67545h40.449701a49.029941 49.029941 0 0 0 49.029941-49.029941V282.235462a34.075809 34.075809 0 0 0-33.830659-33.708085M3154.586891 224.012407a286.947729 286.947729 0 0 0-63.616349-65.332396l-32.482335 23.166647 54.790959 73.544911z" fill="#221E1F" p-id="7765"></path><path d="M889.893919 890.451879a61.287426 61.287426 0 0 1-85.802397 0l-43.268923-42.901198 64.842097-65.087247-81.389702-81.634851-65.209821 64.842096-65.087247-65.087246-81.389702 81.634852 65.087247 64.964671s-20.347425 20.102276-43.146348 43.023773a61.287426 61.287426 0 1 1-85.802397-85.802396c24.51497-24.51497 210.215872-211.68677 210.215872-211.68677l211.19647 211.564195a61.287426 61.287426 0 0 1 0 85.802397M468.604151 219.722287a61.287426 61.287426 0 0 1 85.802397-85.802397l43.268923 43.268923-65.087247 64.474373 81.389702 81.880001 64.964672-65.087247 65.087246 65.087247 81.389702-81.880001-64.842097-64.474373s20.102276-20.347425 43.268923-43.268923a61.287426 61.287426 0 0 1 85.802397 0 60.429402 60.429402 0 0 1 0 85.802397L678.207149 431.409057S492.873972 244.604982 468.604151 219.722287m292.218448 292.586173l210.461022-210.951321A176.385213 176.385213 0 0 0 721.966371 51.672164c-26.843893 27.701917-42.656049 43.268923-42.656049 43.268923s-15.567006-15.567006-42.778623-43.268923a176.507787 176.507787 0 1 0-249.5624 249.684975l210.951321 210.951321S406.090976 703.402654 386.969299 722.646906A176.507787 176.507787 0 0 0 636.531699 972.331881c27.211617-27.701917 42.778623-43.759222 42.778623-43.759223S695.122478 944.139664 721.966371 972.331881a176.385213 176.385213 0 0 0 249.31725-249.684975c-18.876527-19.244252-210.461021-210.338447-210.461022-210.338446m462.597493 42.410899a60.184253 60.184253 0 0 1-85.802397 0c-19.366827-19.366827-42.901198-42.410899-42.901198-42.410899s23.534372-24.51497 42.901198-43.268923a60.551977 60.551977 0 0 1 103.453176 43.268923 58.713354 58.713354 0 0 1-17.528204 42.410899m81.880001-167.559824a176.998087 176.998087 0 0 0-249.439824 0c-19.244252 19.857126-42.901198 43.023773-42.901199 43.023774l-65.209821-64.596948-81.512277 80.899403L931.569369 512.06331 866.359547 576.415107l81.512277 81.634852 64.842097-64.842097s23.656947 23.411797 42.901198 43.023773a176.385213 176.385213 0 0 0 249.684974-249.194674M219.777201 554.719359a60.674552 60.674552 0 0 1-103.8209-42.410899 62.513175 62.513175 0 0 1 17.405629-43.268923 61.287426 61.287426 0 0 1 85.802397 0l42.656048 43.268923s-23.902096 23.044072-42.656048 42.410899m188.765272 103.943474L490.2999 577.027982l-65.087247-64.474373L490.2999 446.976063l-82.370301-80.899402L343.210077 430.428458l-43.023773-43.023773A176.262638 176.262638 0 0 0 0.000491 512.553609 176.262638 176.262638 0 0 0 300.799178 637.702534c14.463833-14.218683 28.682515-28.559941 43.023773-43.023774z" fill="#ED1A34" p-id="7766"></path></svg>