<?xml version="1.0" standalone="no"?><!DOCTYPE svg PUBLIC "-//W3C//DTD SVG 1.1//EN" "http://www.w3.org/Graphics/SVG/1.1/DTD/svg11.dtd"><svg t="1751701811948" class="icon" viewBox="0 0 3217 1024" version="1.1" xmlns="http://www.w3.org/2000/svg" p-id="11695" xmlns:xlink="http://www.w3.org/1999/xlink" width="125.6640625" height="40"><path d="M513.810664 468.864978s1.612281-8.351196 9.974431-6.739911c1.612281-8.348208 9.962481-6.735928 11.588703-15.087124l16.698409 3.237508c45.536225 78.123416 139.835228 217.684786 309.031095 328.407343 77.060844 49.560454 148.9841 80.821173 205.832182 100.472276 64.661519-65.462183 114.223965-142.509085 140.361037-232.769918 65.199278-247.33422-59.824677-496.802546-274.00706-598.901045 46.874647 26.399977 83.786814 59.536877 105.610861 81.086069 6.736923 9.962481 5.124643 18.324631-4.850784 25.0506-9.974431 6.735928-18.311685 5.124643-26.674831 3.511367-36.912166-33.1369-75.436613-57.9236-120.697984-92.684731-55.224847-28.025203-95.373525-44.448757-135.522203-60.886253L734.454119 0.323651c-8.3502-1.612281-26.674831 3.499416-43.375231 0.262904 40.136728 16.4365 87.023325 42.835481 140.634896 79.196943 78.661175 41.225192 137.409339 95.911284 181.047474 139.022615 8.348208 1.614272 13.472851 19.937908 3.49842 26.674831-1.612281 8.3502-19.937908 13.463888-26.674831 3.501407-43.64909-43.100377-110.734507-99.4107-187.783402-148.972149-77.048894-49.56145-142.247177-70.84973-199.095258-90.510791-9.963477 6.736923-28.288108 11.849616-38.262539 18.586539 50.112155 9.700572 113.698156 39.32511 184.009131 78.924079 115.585292 74.3601 194.533271 158.946581 236.55813 210.408112 8.349204 1.612281 13.472851 19.936912 3.49842 26.673836-1.612281 8.351196-19.937908 13.461897-26.674831 3.501407-48.760787-61.424012-129.322043-137.672243-244.895384-212.020392-78.673125-41.225192-133.896977-69.248403-199.108205-90.522742-9.957502 6.733936-18.307702 5.109705-28.282132 11.846629 56.849078 19.662057 120.43508 49.299541 189.132778 97.261656 147.371819 89.160419 238.169415 202.044966 285.319912 271.831128l-4.850784 25.048609c-9.961485 6.739911-18.324631 5.126634-26.674831 3.501407-55.498706-71.398443-146.297297-184.27104-293.670112-273.443408-68.696702-47.949169-140.6339-79.197938-197.482978-98.872942l-29.911343 20.210771c73.548482 22.900561 193.983562 72.18616 313.055323 173.221091 110.736499 99.411696 169.748563 197.470032 208.534919 265.632959 0 0-1.612281 8.349204-11.574762 15.085132-9.974431 6.738915-18.324631 5.113688-26.674831 3.501407-43.923944-86.486562-139.835228-217.684786-309.03209-328.406347-77.060844-49.56145-148.9841-80.823165-205.833178-100.485222 0 0 9.974431-6.737919 11.587707-15.100069-94.560912 85.673949-168.922008 201.271191-176.459594 329.781615-33.398809 262.131551 151.697791 514.575477 410.603784 564.675681l25.049605 4.849789c-33.399804-6.462069-75.160763-14.537414-113.68521-39.325111-55.236797-28.023212-98.885887-71.123588-120.709935-92.684731-6.737919-9.963477-5.111697-18.325627 4.850784-25.06255 9.962481-6.724973 18.324631-5.113688 26.674831-3.487466 30.174247 23.175415 67.085418 56.299369 130.672415 85.934862 61.972725 37.987684 117.198568 65.999941 167.308731 75.700513 0 0-9.974431 6.736923-26.674831 3.49842l16.700401 3.238504c16.710359 3.238503 35.023039-1.875185 44.999462-8.611113-48.498878-18.037826-105.347956-37.723784-167.309727-75.697526-77.059849-49.5734-137.408343-95.923234-181.045483-139.010665-6.737919-9.974431-5.125639-18.336581-3.513358-26.673835l8.350201 1.612281 1.614272-8.362151c1.612281-8.337254 19.936912-13.462893 26.672839-3.501407 43.650086 43.111331 102.373353 97.798419 189.396679 140.635891 77.06184 49.5734 150.610323 72.471969 207.458405 92.137014-9.962481 6.722982-26.673835 3.49842-36.635321 10.234348l25.048609 4.850784c28.287112-11.861566 54.960947-15.362974 84.860339-35.57474-18.310689 5.113688-28.286116 11.849616-46.611742 16.974258-56.848082-19.661061-122.046365-40.948345-190.745059-88.896518-117.198568-66.012887-187.784398-148.9841-236.545184-210.408112-6.737919-9.963477-3.512362-26.673835-1.888131-35.026027 1.612281-8.348208 9.962481-6.736923 18.31268-5.110701l16.700401 3.224562c35.29889 41.485108 84.060672 102.90912 159.496289 160.833716 23.436328 13.198992 45.273321 34.749181 77.060845 49.5734 77.047898 49.5734 142.246181 70.860684 207.457409 92.137013l9.962481-6.738915c-56.849078-19.661061-120.43508-49.299541-182.396851-87.28623-137.408343-95.910288-229.819215-200.433681-283.70564-280.180332l-6.737919-9.964472 1.614272-8.348208 8.348209 1.611284c9.963477-6.735928 18.312681-5.112693 26.674831-3.49842 55.499702 71.397447 154.647497 185.882325 293.670112 273.443409 68.71164 47.962115 133.896977 69.248403 189.13477 97.261656l8.348208 1.611285 29.898397-20.200812c-73.547487-22.910519-193.983562-72.19811-313.067274-173.221091-112.299983-91.034608-178.03702-199.071358-206.872845-273.967225-1.612281 8.348208-1.612281 8.348208 0 0z" p-id="11696"></path><path d="M521.073396 695.333158c-8.513519 0-8.513519 8.513519 0 0zM1456.091653 243.3558l-0.213112 104.87194 408.54138 0.17527v42.162286h-443.841266s-14.048452-3.701573-15.535256-17.012101V219.681465s-1.474853-17.750026 16.286127-17.750026h443.090395v41.424361m625.799942-41.424361v189.371782h51.049249V249.280111l344.70542 142.02311h52.523107V201.931439h-51.772236v136.858634l-346.945086-136.858634h-49.560454z m-1085.204347 278.130873h1533.495069v31.962793H1405.015516v-31.962793z m966.844618-278.130873c29.586696 0 25.162135 17.012101 25.162135 17.012101v49.56145c-1.488795 17.750026-19.235834 13.774594-19.235833 13.774593v13.962809c17.747038-1.838339 19.235834 9.249452 19.235833 9.249453v67.310479c-2.225724 14.062394-19.235834 17.763968-19.235833 17.763968h-430.516796v-188.633857h424.590494z m-377.991698 36.986855v110.211686h356.541095s5.92431-2.949707 5.92431-11.825715v-20.712679s-1.474853-8.875013-10.360821-9.624888l-312.045532 0.124482 0.140415-35.635488h317.092498s5.425389-0.487966 5.17344-6.900242v-16.775089s1.723816-7.886134-6.161323-8.875013h-356.305077v0.012946z m-585.200144 544.474869V609.574562h135.571996v-57.026339h52.987173v57.026339h135.571996v118.19641c1.024729 38.022539-17.676333 56.559286-56.098208 55.622191h-79.461838v93.173693h-52.987173v-93.173693h-135.583946z m48.298713-30.586529h87.259341V640.158104h-87.259341v112.64853z m227.518802-112.64853h-87.259342v112.64853h63.885753c15.574094 0 23.373589-7.411114 23.373589-22.25027v-90.39826z m119.98396 235.421865V568.135263h331.944601v257.621348c1.012779 34.148683-17.149528 50.760453-54.549661 49.812404H1804.469767v0.010954z m49.876138-27.036324h205.694755c18.698075 0 27.513337-8.064391 26.488607-24.212095V598.023701h-232.182366V848.543645z m17.135586-193.571281v-28.476323h196.345718v28.476323h-76.34682v42.700045h68.560271v28.459394h-68.560271v62.625007h81.021339v28.476323h-205.695751v-28.476323h74.797278v-62.625007h-63.884757V697.672409h63.884757v-42.700045h-70.121764z m151.15804 125.247026a219.223374 219.223374 0 0 0-14.023556-44.12411h32.725614c8.299412 12.338578 14.023556 27.050266 17.135587 44.12411h-35.837645z m204.146209-188.70755h137.137472V554.100753h57.658703v37.410091h126.235905v35.834657h-268.030965l0.860414 248.222518h-53.861529v-284.056179z m375.555849 206.769277V588.773253h126.235904V554.100753h51.424685v34.671504h129.347935v150.259784c2.061409 40.448429-18.701062 60.211067-62.33621 59.238121H2780.014128v21.659732c-1.047634 21.201641 8.812274 31.324454 29.612588 30.351508h66.997783c18.701062 0.973941 27.513337-6.250949 26.488607-21.662719v-13.011773h38.959633v15.885795c1.025725 31.787524-16.636666 47.18834-52.987172 46.237304h-99.733356c-41.561789 0.951036-61.810402-17.336748-60.773722-54.913146v-24.560643h-126.235904v0.024897z m46.74917-179.157352v57.785177h79.47578v-57.785177h-79.47578z m0 148.820781h79.47578v-60.673141h-79.47578v60.673141z m211.93475-148.820781h-81.024327v57.785177h81.024327v-57.785177z m-28.051096 148.820781c19.724796 0.974937 29.073833-7.22489 28.051096-24.560642v-36.125445h-81.024327v60.675133h52.973231v0.010954z" p-id="11697"></path></svg>