<?xml version="1.0" standalone="no"?><!DOCTYPE svg PUBLIC "-//W3C//DTD SVG 1.1//EN" "http://www.w3.org/Graphics/SVG/1.1/DTD/svg11.dtd"><svg t="1752377398467" class="icon" viewBox="0 0 1024 1024" version="1.1" xmlns="http://www.w3.org/2000/svg" p-id="1659" xmlns:xlink="http://www.w3.org/1999/xlink" width="200" height="200"><path d="M853.269227 0A128.021333 128.021333 0 0 1 981.333227 128.128v767.744A128.085333 128.085333 0 0 1 853.269227 1024H170.73056A128.021333 128.021333 0 0 1 42.66656 895.872V128.128A128.085333 128.085333 0 0 1 170.73056 0h682.538667zM853.333227 85.333333H170.66656c-23.68 0-42.666667 19.072-42.666667 42.602667v768.128C127.999893 919.637333 147.093227 938.666667 170.66656 938.666667h682.666667c23.68 0 42.666667-19.072 42.666666-42.602667V127.936A42.602667 42.602667 0 0 0 853.333227 85.333333z m-170.453334 682.666667c22.378667 0 40.725333 17.258667 42.346667 39.466667L725.333227 810.666667a42.666667 42.666667 0 0 1-42.453334 42.666666H341.119893A42.453333 42.453333 0 0 1 298.66656 810.666667a42.666667 42.666667 0 0 1 42.453333-42.666667h341.76zM511.999893 277.333333a85.333333 85.333333 0 0 0-4.266666 170.56L511.999893 448a85.333333 85.333333 0 1 0 0-170.666667z m-32 416S298.66656 480.490667 298.66656 362.666667 394.175893 149.333333 511.999893 149.333333l5.973334 0.085334C633.023893 152.576 725.333227 246.826667 725.333227 362.666667c0 117.824-181.333333 330.666667-181.333334 330.666666-10.666667 10.666667-21.333333 10.666667-32 10.666667s-21.333333 0-32-10.666667z" fill="#F44B34" p-id="1660"></path></svg>