<svg xmlns="http://www.w3.org/2000/svg" viewBox="0 0 24 24" fill="currentColor">
  <path d="M12 2C12.5523 2 13 2.44772 13 3V4.08296C15.8377 4.55904 18 7.02702 18 10V16C18 17.1046 18.8954 18 20 18C20.5523 18 21 18.4477 21 19C21 19.5523 20.5523 20 20 20H4C3.44772 20 3 19.5523 3 19C3 18.4477 3.44772 18 4 18C5.10457 18 6 17.1046 6 16V10C6 7.02702 8.16229 4.55904 11 4.08296V3C11 2.44772 11.4477 2 12 2ZM8 10V16H16V10C16 8.34315 14.6569 7 13 7H11C9.34315 7 8 8.34315 8 10ZM9 21H15C15 21.5523 14.5523 22 14 22H10C9.44772 22 9 21.5523 9 21Z" fill="#ff6b35"/>
  <circle cx="12" cy="12" r="2" fill="#ff4444" opacity="0.8">
    <animate attributeName="r" values="1.5;2.5;1.5" dur="2s" repeatCount="indefinite"/>
    <animate attributeName="opacity" values="0.6;1;0.6" dur="2s" repeatCount="indefinite"/>
  </circle>
</svg>
