<?xml version="1.0" standalone="no"?><!DOCTYPE svg PUBLIC "-//W3C//DTD SVG 1.1//EN" "http://www.w3.org/Graphics/SVG/1.1/DTD/svg11.dtd"><svg t="1752377393442" class="icon" viewBox="0 0 1024 1024" version="1.1" xmlns="http://www.w3.org/2000/svg" p-id="1505" xmlns:xlink="http://www.w3.org/1999/xlink" width="200" height="200"><path d="M758.0672 936.0896H262.6048a137.1136 137.1136 0 0 1-136.9088-136.9088V223.3344a137.1136 137.1136 0 0 1 136.9088-136.96h495.4624a137.0624 137.0624 0 0 1 136.9088 136.96v55.8592a30.72 30.72 0 0 1-61.44 0V223.3344a75.5712 75.5712 0 0 0-75.4688-75.52H262.6048a75.5712 75.5712 0 0 0-75.4688 75.52v575.8464a75.52 75.52 0 0 0 75.4688 75.4688h495.4624a75.52 75.52 0 0 0 75.4688-75.4688V500.992a30.72 30.72 0 1 1 61.44 0v298.1888a137.0624 137.0624 0 0 1-136.9088 136.9088z" fill="#474747" p-id="1506"></path><path d="M510.3616 675.84c-36.2496 0-183.0912-89.2416-183.0912-277.4528a183.0912 183.0912 0 1 1 366.1312 0c0 191.1808-145.5616 277.4528-183.04 277.4528z m5.12-60.928z m-9.2672 0z m0 0z m4.352-337.92a121.8048 121.8048 0 0 0-121.856 121.1904c0 138.24 93.952 202.6496 121.9072 215.04 27.8016-11.52 121.344-74.6496 121.344-214.784A121.8048 121.8048 0 0 0 510.3616 276.48z" fill="#4F95FC" p-id="1507"></path><path d="M656.4352 795.904H364.2368a30.72 30.72 0 1 1 0-61.44h292.1984a30.72 30.72 0 0 1 0 61.44z" fill="#474747" p-id="1508"></path><path d="M510.3616 399.4624m-55.3984 0a55.3984 55.3984 0 1 0 110.7968 0 55.3984 55.3984 0 1 0-110.7968 0Z" fill="#5C96FF" p-id="1509"></path></svg>